<?xml version="1.0" encoding="utf-8"?>
<!-- Generator: Adobe Illustrator 23.0.3, SVG Export Plug-In . SVG Version: 6.00 Build 0)  -->
<svg version="1.1" id="Layer_1" xmlns="http://www.w3.org/2000/svg" xmlns:xlink="http://www.w3.org/1999/xlink" x="0px" y="0px"
	 viewBox="0 0 226.6 233.8" style="enable-background:new 0 0 226.6 233.8;" xml:space="preserve">
<style type="text/css">
	.st0{fill:#1D1D1B;}
</style>
<g>
	<path class="st0" d="M104.6,12.6h3.6v14.6h-3.6V12.6z"/>
	<path class="st0" d="M109.5,22.6h3.6c0.2,1.5,1.1,2.1,2.9,2.1c1.2,0,2.4-0.4,2.4-1.5c0-1.2-1.2-1.4-3.2-1.9
		c-2.5-0.6-5.2-1.4-5.2-4.4c0-3.1,2.5-4.5,5.8-4.5c3.2,0,5.6,1.4,5.8,4.5H118c-0.1-1.1-1-1.8-2.4-1.8c-1.3,0-2.1,0.6-2.1,1.4
		c0,1,1.1,1.3,3.3,1.8c2.7,0.6,5.2,1.5,5.2,4.6c0,3.1-2.6,4.8-6,4.8C112.1,27.6,109.6,25.8,109.5,22.6z"/>
</g>
<g>
	<path class="st0" d="M201.7,110.6h3.6v14.6h-3.6V110.6z"/>
	<path class="st0" d="M210.9,113.7h-4.3v-3.1h12.2v3.1h-4.3v11.6h-3.6V113.7z"/>
</g>
<g>
	<path class="st0" d="M96.5,209.6h-4.3v-3.1h12.2v3.1h-4.3v11.6h-3.6V209.6z"/>
	<path class="st0" d="M104.6,213.9c0-4.4,2.8-7.6,7.2-7.6c4.4,0,7.2,3.3,7.2,7.6s-2.8,7.6-7.2,7.6
		C107.4,221.5,104.6,218.2,104.6,213.9z M115.4,213.9c0-2.7-1.2-4.7-3.5-4.7c-2.4,0-3.6,2-3.6,4.7c0,2.7,1.2,4.7,3.6,4.7
		C114.2,218.5,115.4,216.5,115.4,213.9z"/>
	<path class="st0" d="M119.9,213.9c0-4.4,2.8-7.6,7.2-7.6c4.4,0,7.2,3.3,7.2,7.6s-2.8,7.6-7.2,7.6
		C122.7,221.5,119.9,218.2,119.9,213.9z M130.7,213.9c0-2.7-1.2-4.7-3.5-4.7c-2.4,0-3.6,2-3.6,4.7c0,2.7,1.2,4.7,3.6,4.7
		C129.5,218.5,130.7,216.5,130.7,213.9z"/>
</g>
<g>
	<path class="st0" d="M0,109.4h3.6v11.6h6.6v3.1H0V109.4z"/>
	<path class="st0" d="M16,109.4h3.7L25,124h-3.8l-0.9-2.6h-5.1l-0.8,2.6h-3.6L16,109.4z M19.5,118.8l-1.1-3.5
		c-0.2-0.8-0.6-2.1-0.6-2.1h0c0,0-0.3,1.3-0.6,2.1l-1.1,3.5H19.5z"/>
	<path class="st0" d="M27.8,112.5h-4.3v-3.1h12.2v3.1h-4.3V124h-3.6V112.5z"/>
	<path class="st0" d="M37.1,109.4h11.1v3h-7.5v2.6h6.4v2.8h-6.4v3.1h7.6v3.1H37.1V109.4z"/>
</g>
</svg>
